<svg xmlns="http://www.w3.org/2000/svg"
     viewBox="0 0 42 42"
     width="25"
     height="25">
    <defs>
        <linearGradient id="grad1" x1="0%" y1="0%" x2="100%" y2="0%">
            <stop offset="0%" stop-color="var(--components-gradient-text-1)"></stop>
            <stop offset="50%" stop-color="var(--components-gradient-text-2)"></stop>
            <stop offset="100%" stop-color="var(--components-gradient-text-3)"></stop>
        </linearGradient>
    </defs>
    <path fill="url(#grad1)"
          d="M21.47 41.88c-4.11 0-6.02-.6-9.34-3-2.1 2.7-8.75 4.81-9.04 1.2 0-2.71-.6-5-1.28-7.5C1 29.5.08 26.07.08 21.1.08 9.23 9.82.3 21.36.3c11.55 0 20.6 9.37 20.6 20.91a20.6 20.6 0 0 1-20.49 20.67Zm.17-31.32c-5.62-.29-10 3.6-10.97 9.7-.8 5.05.62 11.2 1.83 11.52.58.14 2.04-1.04 2.95-1.95a10.4 10.4 0 0 0 5.08 1.81 10.7 10.7 0 0 0 11.19-9.97 10.7 10.7 0 0 0-10.08-11.1Z">
    </path>
</svg>